<?xml version="1.0" encoding="UTF-8"?>
<svg viewBox="0 0 412 523" xmlns="http://www.w3.org/2000/svg">
 <g transform="matrix(-1 0 0 1 412 0)" fill="#8f6237">
  <path d="m257.87 274.39c79.166-8.333 65.869-131.13 2.083-164.58-42.259-22.162-99.311-21.194-137.5-6.25-72.437 28.345-91.666 64.583-102.08 135.42-10.417 70.834 24.486 258.2 108.33 279.17 75 18.75 103.94-17.607 95.833-52.083-8.333-35.417-49.408-81.295-52.083-112.5-6.25-72.917 85.417-79.167 85.417-79.167z"/>
  <path d="m398.94 101.5c-21.207 30.8-61.446 39.899-89.876 20.324-28.431-19.575-34.287-60.412-13.08-91.212s61.445-39.898 89.876-20.323c28.429 19.575 34.286 60.412 13.08 91.211z"/>
  <path d="m235.45 82.105c-18.149 3.09-35.288-8.655-38.282-26.236-2.995-17.581 8.591-44.006 26.739-47.096 18.148-3.092 35.288 8.655 38.282 26.236s-8.592 44.005-26.739 47.096z"/>
  <path d="m176.6 69.41c-10.276 14.576-25.334 17.381-40.38 6.774s-18.585-40.858-8.309-55.435c10.276-14.575 25.333-17.38 40.38-6.773 15.046 10.607 18.585 40.858 8.309 55.434z"/>
  <path d="m113.75 80.36c-3.157 15.209-18.958 24.79-35.294 21.399s-29.616-26.455-26.459-41.664 18.958-24.79 35.293-21.399 29.617 26.455 26.46 41.664z"/>
  <path d="m47.389 102.14c9.291 13.857 7.525 31.324-3.943 39.013-11.468 7.688-28.296 2.688-37.587-11.17-9.29-13.857-7.524-31.324 3.944-39.012s28.296-2.688 37.586 11.169z"/>
 </g>
</svg>
